<?xml version="1.0" encoding="UTF-8" standalone="no"?>
<!-- Created with Inkscape (http://www.inkscape.org/) -->

<svg
   xmlns:dc="http://purl.org/dc/elements/1.1/"
   xmlns:cc="http://creativecommons.org/ns#"
   xmlns:rdf="http://www.w3.org/1999/02/22-rdf-syntax-ns#"
   xmlns:svg="http://www.w3.org/2000/svg"
   xmlns="http://www.w3.org/2000/svg"
   xmlns:sodipodi="http://sodipodi.sourceforge.net/DTD/sodipodi-0.dtd"
   xmlns:inkscape="http://www.inkscape.org/namespaces/inkscape"
   width="744.09448819"
   height="1052.3622047"
   id="svg2"
   version="1.1"
   inkscape:version="0.48.4 r9939"
   sodipodi:docname="logo.svg"
   inkscape:export-filename="C:\Users\herdy.handoko.CORP\Desktop\YamNet_36.png"
   inkscape:export-xdpi="5.2635126"
   inkscape:export-ydpi="5.2635126">
  <defs
     id="defs4" />
  <sodipodi:namedview
     id="base"
     pagecolor="#ffffff"
     bordercolor="#666666"
     borderopacity="1.0"
     inkscape:pageopacity="0.0"
     inkscape:pageshadow="2"
     inkscape:zoom="0.175"
     inkscape:cx="172.29391"
     inkscape:cy="575.88184"
     inkscape:document-units="px"
     inkscape:current-layer="layer1"
     showgrid="false"
     inkscape:window-width="923"
     inkscape:window-height="629"
     inkscape:window-x="78"
     inkscape:window-y="78"
     inkscape:window-maximized="0" />
  <metadata
     id="metadata7">
    <rdf:RDF>
      <cc:Work
         rdf:about="">
        <dc:format>image/svg+xml</dc:format>
        <dc:type
           rdf:resource="http://purl.org/dc/dcmitype/StillImage" />
        <dc:title></dc:title>
      </cc:Work>
    </rdf:RDF>
  </metadata>
  <g
     inkscape:label="Container"
     inkscape:groupmode="layer"
     id="layer1"
     style="display:inline"
     sodipodi:insensitive="true">
    <path
       sodipodi:type="arc"
       style="fill:#0190ba;fill-opacity:1;fill-rule:evenodd;stroke:none"
       id="path2985"
       sodipodi:cx="302.85715"
       sodipodi:cy="432.36218"
       sodipodi:rx="197.14285"
       sodipodi:ry="191.42857"
       d="m 500,432.36218 a 197.14285,191.42857 0 1 1 -394.28571,0 197.14285,191.42857 0 1 1 394.28571,0 z"
       transform="matrix(1.2142661,0,0,1.2505127,-22.534853,-156.38366)" />
  </g>
  <g
     inkscape:groupmode="layer"
     id="layer4"
     inkscape:label="Web Service Connector "
     style="display:inline"
     sodipodi:insensitive="true">
    <g
       id="g3781">
      <path
         transform="matrix(1.9718309,0,0,1.6568047,-551.29045,-20.004568)"
         d="m 633.39287,246.73718 a 12.678572,15.089286 0 1 1 -25.35715,0 12.678572,15.089286 0 1 1 25.35715,0 z"
         sodipodi:ry="15.089286"
         sodipodi:rx="12.678572"
         sodipodi:cy="246.73718"
         sodipodi:cx="620.71429"
         id="path3771"
         style="fill:#0190ba;fill-opacity:1;stroke:none"
         sodipodi:type="arc" />
      <rect
         y="380.39792"
         x="581.96429"
         height="17.5"
         width="70.178574"
         id="rect3773"
         style="fill:#0190ba;fill-opacity:1;stroke:none" />
    </g>
    <g
       id="g3785"
       transform="matrix(0.85977969,-0.51066515,0.51066515,0.85977969,-151.28776,256.42243)">
      <path
         sodipodi:type="arc"
         style="fill:#0190ba;fill-opacity:1;stroke:none"
         id="path3787"
         sodipodi:cx="620.71429"
         sodipodi:cy="246.73718"
         sodipodi:rx="12.678572"
         sodipodi:ry="15.089286"
         d="m 633.39287,246.73718 c 0,8.33359 -5.67639,15.08929 -12.67858,15.08929 -7.00218,0 -12.67857,-6.7557 -12.67857,-15.08929 0,-8.33358 5.67639,-15.08928 12.67857,-15.08928 7.00219,0 12.67858,6.7557 12.67858,15.08928 z"
         transform="matrix(1.9718309,0,0,1.6568047,-551.29045,-20.004568)" />
      <rect
         style="fill:#0190ba;fill-opacity:1;stroke:none"
         id="rect3789"
         width="70.178574"
         height="17.5"
         x="581.96429"
         y="380.39792" />
    </g>
    <g
       id="g3791"
       transform="matrix(0.84503892,0.53470481,-0.53470481,0.84503892,260.07814,-160.05142)">
      <path
         sodipodi:type="arc"
         style="fill:#0190ba;fill-opacity:1;stroke:none"
         id="path3793"
         sodipodi:cx="620.71429"
         sodipodi:cy="246.73718"
         sodipodi:rx="12.678572"
         sodipodi:ry="15.089286"
         d="m 633.39287,246.73718 c 0,8.33359 -5.67639,15.08929 -12.67858,15.08929 -7.00218,0 -12.67857,-6.7557 -12.67857,-15.08929 0,-8.33358 5.67639,-15.08928 12.67857,-15.08928 7.00219,0 12.67858,6.7557 12.67858,15.08928 z"
         transform="matrix(1.9718309,0,0,1.6568047,-551.29045,-20.004568)" />
      <rect
         style="fill:#0190ba;fill-opacity:1;stroke:none"
         id="rect3795"
         width="70.178574"
         height="17.5"
         x="581.96429"
         y="380.39792" />
    </g>
  </g>
  <g
     inkscape:groupmode="layer"
     id="layer3"
     inkscape:label="Yammer &quot;Y&quot;"
     style="display:inline">
    <path
       style="fill:#ffffff;fill-opacity:1;stroke:none"
       d="m 242.61445,554.69947 c 0.40146,-15.67672 13.36307,-19.75335 19.92683,-19.5435 6.56377,0.20986 1.14131,-0.10152 18.21043,0.0806 17.06911,0.18212 26.93028,-3.93063 39.32716,-25.79041 4.02128,-7.09084 13.47457,-32.47192 13.47457,-32.47192 L 231.34305,228.20446 c 0,0 -4.1241,-20.03059 14.80754,-27.46816 18.93162,-7.43757 27.73637,6.5214 27.73637,6.5214 l 85.57134,209.93608 81.00233,-207.20551 c 0,0 9.42326,-15.09852 27.77669,-7.25929 18.35343,7.83923 11.45587,25.31145 11.45587,25.31145 0,0 -113.92554,284.17409 -116.88095,290.03734 -23.33976,52.72876 -59.2636,57.7776 -74.01323,57.53707 -16.32741,0.11596 -17.17121,-0.18199 -25.32614,-0.28688 -11.19921,0.14307 -21.25988,-4.95178 -20.85842,-20.62849 z"
       id="path3768"
       inkscape:connector-curvature="0"
       sodipodi:nodetypes="zzzscczccczccccz" />
  </g>
</svg>
